<?xml version="1.0" encoding="UTF-8"?>
<svg version="1.1" xmlns="http://www.w3.org/2000/svg" width="1080" height="1080">
<path d="M0 0 C1.37227753 -0.01441132 1.37227753 -0.01441132 2.77227783 -0.02911377 C3.75460388 -0.03336365 4.73692993 -0.03761353 5.74902344 -0.04199219 C7.27689484 -0.0505423 7.27689484 -0.0505423 8.83563232 -0.05926514 C10.99083419 -0.06870602 13.14605044 -0.0752455 15.30126953 -0.07910156 C18.58229075 -0.08879009 21.86268086 -0.11981558 25.14355469 -0.15136719 C27.24120723 -0.15789943 29.33886424 -0.16314903 31.43652344 -0.16699219 C32.41075256 -0.17933899 33.38498169 -0.19168579 34.38873291 -0.20440674 C40.64955432 -0.18414782 47.03049118 0.13634309 51.91705322 4.57781982 C56.56244679 9.91207481 56.5069631 14.56935529 56.50556946 21.32037354 C56.50924615 22.26946555 56.51292283 23.21855756 56.51671094 24.19640994 C56.52776285 27.390711 56.53159417 30.58497954 56.53540039 33.77929688 C56.54166386 36.06392012 56.54831055 38.34854235 56.55531311 40.63316345 C56.57273262 46.85019614 56.5832773 53.06722114 56.59151864 59.28427219 C56.59666637 63.16671699 56.60274218 67.04915938 56.60902977 70.93160248 C56.62589983 81.68210745 56.64053503 92.43260871 56.64777851 103.18312454 C56.64968838 105.97250622 56.65160872 108.76188789 56.65356445 111.55126953 C56.65404819 112.2445501 56.65453193 112.93783066 56.65503033 113.65211973 C56.66333067 124.88284077 56.68866814 136.1134553 56.72114513 147.34412983 C56.75422122 158.87604214 56.771895 170.40788432 56.77542275 181.9398458 C56.7777759 188.41399101 56.78677108 194.88796785 56.81188393 201.36206818 C56.83512621 207.4523687 56.83941319 213.54238952 56.82912254 219.63272285 C56.82862615 221.8680241 56.8349768 224.10333894 56.84867859 226.33859825 C56.86634081 229.39072121 56.85931876 232.44183425 56.84614563 235.49395752 C56.85711488 236.37811222 56.86808412 237.26226693 56.87938577 238.1732142 C56.81868125 244.0005134 55.70515302 247.36189056 52.35839844 252.16113281 C47.0007948 257.36650778 40.99227526 256.74181051 33.95214844 256.69238281 C32.75408569 256.69620972 31.55602295 256.70003662 30.32165527 256.70397949 C27.79336708 256.70669658 25.26505069 256.69934981 22.73681641 256.68261719 C18.87175696 256.66120681 15.00855647 256.68242806 11.14355469 256.70800781 C8.68391518 256.7053645 6.22427682 256.70023946 3.76464844 256.69238281 C2.61138062 256.70047974 1.45811279 256.70857666 0.26989746 256.71691895 C-5.78844171 256.64627631 -10.08092755 256.59222177 -14.64160156 252.16113281 C-18.59291009 246.48846215 -19.21861152 242.34432215 -19.14953613 235.52087402 C-19.1557761 234.56836431 -19.16201606 233.6158546 -19.16844511 232.63448095 C-19.18436161 229.45235565 -19.17177579 226.27099777 -19.15917969 223.08886719 C-19.16460138 220.80365045 -19.1717243 218.51843721 -19.18041992 216.23323059 C-19.19865035 210.03287239 -19.1915867 203.83278052 -19.17890358 197.63241768 C-19.16877458 191.14275522 -19.17816899 184.65311551 -19.18444824 178.16345215 C-19.19219097 166.56733543 -19.1797625 154.97134022 -19.15941089 143.37524265 C-19.1415406 132.86777756 -19.14464493 122.36048925 -19.16308594 111.85302734 C-19.18450701 99.64189524 -19.19245211 87.43088897 -19.18063688 75.21973848 C-19.17440164 68.75909462 -19.17356732 62.29857245 -19.18678284 55.8379364 C-19.19833961 49.76395741 -19.19031824 43.69031219 -19.16720581 37.61636925 C-19.16191787 35.38752992 -19.16343391 33.1586625 -19.17225647 30.92983437 C-19.18319176 27.88664123 -19.16947187 24.84451671 -19.14953613 21.8013916 C-19.15845902 20.91996538 -19.16738191 20.03853915 -19.17657518 19.13040304 C-19.10280004 13.32194576 -18.0147645 9.92716293 -14.64160156 5.16113281 C-9.79403726 1.32347774 -6.07153875 0.05169538 0 0 Z " fill="#323D4E" transform="translate(124.6416015625,500.8388671875)"/>
<path d="M0 0 C1.52362656 -0.00642769 1.52362656 -0.00642769 3.07803345 -0.01298523 C5.22128557 -0.01871387 7.36455713 -0.01923963 9.5078125 -0.01489258 C12.7711741 -0.01173605 16.03362554 -0.03519886 19.296875 -0.06054688 C21.38541553 -0.06282049 23.47395848 -0.06352308 25.5625 -0.0625 C26.53045502 -0.07170975 27.49841003 -0.08091949 28.49569702 -0.09040833 C34.7305784 -0.04824159 41.10933312 0.2978786 45.97299194 4.71733093 C50.61475577 10.04894227 50.56419902 14.70574123 50.56796265 21.45329285 C50.57453603 22.87587252 50.57453603 22.87587252 50.5812422 24.32719117 C50.59464393 27.51915482 50.60081216 30.71109084 50.60693359 33.90307617 C50.61483346 36.18607712 50.62310234 38.46907682 50.63171387 40.7520752 C50.65794688 48.26178798 50.67324262 55.77150637 50.6875 63.28125 C50.69285912 65.8649375 50.69823663 68.44862497 50.70363235 71.03231239 C50.72526279 81.77852427 50.74415132 92.52473289 50.75525475 103.27096081 C50.75818438 106.05930269 50.76114605 108.84764454 50.76416016 111.63598633 C50.76490621 112.32900458 50.76565226 113.02202284 50.76642092 113.73604164 C50.77907146 124.95964712 50.81229101 136.18309408 50.85396199 147.40662547 C50.89640571 158.93289408 50.91954509 170.45905694 50.92517531 181.98540574 C50.92883118 188.45571382 50.94087809 194.92575317 50.97327805 201.39598656 C51.00332613 207.48387007 51.0096818 213.57132178 50.99789429 219.65926361 C50.99767328 221.89253917 51.00600028 224.12583458 51.02354813 226.35904121 C51.04622223 229.41099791 51.03795205 232.4613865 51.02206421 235.51335144 C51.0359463 236.3945933 51.04982838 237.27583516 51.06413114 238.18378133 C50.98497386 244.36627119 49.35228845 248.50667281 45.4140625 253.30078125 C41.91193997 256.10362712 39.32845748 256.67955024 34.89282227 256.70483398 C33.81142471 256.71751816 32.73002716 256.73020233 31.61585999 256.74327087 C30.45743088 256.74033524 29.29900177 256.7373996 28.10546875 256.734375 C26.90599106 256.73961685 25.70651337 256.7448587 24.47068787 256.7502594 C21.93643975 256.75667704 19.40216184 256.75534598 16.86791992 256.74682617 C12.99408827 256.73831973 9.12173278 256.76707862 5.24804688 256.79882812 C2.78385461 256.80044034 0.31965973 256.79986222 -2.14453125 256.796875 C-3.30093613 256.80810898 -4.457341 256.81934296 -5.64878845 256.83091736 C-16.02391237 256.7411764 -16.02391237 256.7411764 -20.5859375 252.30078125 C-24.54034181 246.62495103 -25.16148523 242.48126883 -25.08714294 235.65379333 C-25.09267734 234.70057806 -25.09821174 233.74736278 -25.10391384 232.76526219 C-25.11749442 229.58078934 -25.10256488 226.39710375 -25.08764648 223.21264648 C-25.09143056 220.92580839 -25.09693133 218.63897258 -25.10401917 216.35214233 C-25.1179785 210.14770889 -25.10680073 203.9435526 -25.09030795 197.73913455 C-25.07645686 191.24633997 -25.08291754 184.75356147 -25.08644104 178.26075745 C-25.08914291 167.35844358 -25.07575654 156.45624233 -25.05249023 145.55395508 C-25.02856515 134.34167393 -25.02148868 123.12953842 -25.03198242 111.91723633 C-25.0446138 98.3967479 -25.0420973 84.87637135 -25.02632332 71.35588264 C-25.02056317 66.19452402 -25.02064644 61.03321413 -25.02538872 55.87185478 C-25.03015865 49.79545983 -25.02005587 43.71926658 -24.99843407 37.64291 C-24.99286654 35.41203937 -24.99240057 33.18114934 -24.99738693 30.95027733 C-25.00333666 27.90688907 -24.99084016 24.86411815 -24.97361755 21.82078552 C-24.9796276 20.93644646 -24.98563764 20.05210739 -24.99182981 19.14097017 C-24.94001583 14.11141422 -24.36297207 10.6637279 -21.5859375 6.30078125 C-15.23125826 0.1178501 -8.39224028 -0.00786906 0 0 Z " fill="#333E4E" transform="translate(386.5859375,439.69921875)"/>
<path d="M0 0 C1.37227753 -0.01441132 1.37227753 -0.01441132 2.77227783 -0.02911377 C3.75460388 -0.03336365 4.73692993 -0.03761353 5.74902344 -0.04199219 C7.27689484 -0.0505423 7.27689484 -0.0505423 8.83563232 -0.05926514 C10.99083419 -0.06870602 13.14605044 -0.0752455 15.30126953 -0.07910156 C18.58229075 -0.08879009 21.86268086 -0.11981558 25.14355469 -0.15136719 C27.24120723 -0.15789943 29.33886424 -0.16314903 31.43652344 -0.16699219 C32.41075256 -0.17933899 33.38498169 -0.19168579 34.38873291 -0.20440674 C40.64955432 -0.18414782 47.03049118 0.13634309 51.91705322 4.57781982 C56.56244679 9.91207481 56.5069631 14.56935529 56.50556946 21.32037354 C56.50924615 22.26946555 56.51292283 23.21855756 56.51671094 24.19640994 C56.52776285 27.390711 56.53159417 30.58497954 56.53540039 33.77929688 C56.54166386 36.06392012 56.54831055 38.34854235 56.55531311 40.63316345 C56.57273262 46.85019614 56.5832773 53.06722114 56.59151864 59.28427219 C56.59666637 63.16671699 56.60274218 67.04915938 56.60902977 70.93160248 C56.62589983 81.68210745 56.64053503 92.43260871 56.64777851 103.18312454 C56.64968838 105.97250622 56.65160872 108.76188789 56.65356445 111.55126953 C56.65404819 112.2445501 56.65453193 112.93783066 56.65503033 113.65211973 C56.66333067 124.88284077 56.68866814 136.1134553 56.72114513 147.34412983 C56.75422122 158.87604214 56.771895 170.40788432 56.77542275 181.9398458 C56.7777759 188.41399101 56.78677108 194.88796785 56.81188393 201.36206818 C56.83512621 207.4523687 56.83941319 213.54238952 56.82912254 219.63272285 C56.82862615 221.8680241 56.8349768 224.10333894 56.84867859 226.33859825 C56.86634081 229.39072121 56.85931876 232.44183425 56.84614563 235.49395752 C56.85711488 236.37811222 56.86808412 237.26226693 56.87938577 238.1732142 C56.81868203 244.00043901 55.70538648 247.36208242 52.35839844 252.16113281 C47.00811166 257.35004081 41.0166435 256.75785266 33.98730469 256.72753906 C32.79161362 256.73373764 31.59592255 256.73993622 30.36399841 256.74632263 C27.83992323 256.75341426 25.3158012 256.75025838 22.79174805 256.73754883 C18.93743464 256.72369226 15.08555353 256.75775844 11.23144531 256.79589844 C8.77506451 256.79684976 6.31868068 256.79499012 3.86230469 256.79003906 C2.71419815 256.80329727 1.56609161 256.81655548 0.38319397 256.83021545 C-5.42086516 256.76293855 -9.59174791 256.43134144 -14.25697327 252.81871033 C-18.77938933 247.40479874 -19.07496234 242.36275041 -19.02928162 235.64112854 C-19.03466715 234.68947325 -19.04005269 233.73781796 -19.04560143 232.75732464 C-19.05989554 229.5722153 -19.05277358 226.3875207 -19.0456543 223.20239258 C-19.05135708 220.91732448 -19.05832098 218.63225923 -19.06645203 216.34719849 C-19.08440833 210.14269518 -19.08321039 203.93833311 -19.07750964 197.73381162 C-19.07442146 192.55473591 -19.08050611 187.37568747 -19.08654839 182.19661564 C-19.10140352 169.28070323 -19.09777326 156.36487934 -19.08568508 143.44896846 C-19.07575275 132.23782523 -19.0886939 121.02684704 -19.11261927 109.81572927 C-19.13701489 98.29726634 -19.14621737 86.77889902 -19.13996655 75.26040882 C-19.13659359 68.79638796 -19.13903476 62.33250348 -19.15621758 55.86850166 C-19.17166904 49.79044598 -19.16775079 43.71270576 -19.14891243 37.63466263 C-19.14522165 35.40420658 -19.14834919 33.17372725 -19.15879822 30.94329262 C-19.17197584 27.89787049 -19.16048856 24.85349765 -19.14280701 21.80812073 C-19.15241201 20.92601238 -19.16201702 20.04390404 -19.17191309 19.13506514 C-19.10251101 13.32319665 -18.01751504 9.92946036 -14.64160156 5.16113281 C-9.79403726 1.32347774 -6.07153875 0.05169538 0 0 Z " fill="#E6EEF2" transform="translate(293.6416015625,417.8388671875)"/>
<path d="M0 0 C1.19806274 -0.0038269 2.39612549 -0.00765381 3.63049316 -0.01159668 C6.15878135 -0.01431376 8.68709775 -0.00696699 11.21533203 0.00976562 C15.08039148 0.031176 18.94359197 0.00995475 22.80859375 -0.015625 C25.26823326 -0.01298169 27.72787162 -0.00785665 30.1875 0 C31.91740173 -0.01214539 31.91740173 -0.01214539 33.68225098 -0.02453613 C39.94851749 0.04853101 43.85139433 0.28016593 48.59375 4.53125 C52.96735658 9.50811265 52.74034909 14.3461915 52.73419189 20.69721985 C52.73716302 21.64701743 52.74013414 22.59681501 52.7431953 23.57539433 C52.75189741 26.77203278 52.75339182 29.96863384 52.75488281 33.1652832 C52.7595099 35.45152873 52.76453441 37.73777349 52.76992798 40.02401733 C52.7830641 46.24511824 52.78949924 52.46620834 52.79393864 58.68732095 C52.79686726 62.57176818 52.80097166 66.45621245 52.80544281 70.34065819 C52.81755292 81.09545592 52.82793467 91.85024977 52.8313179 102.6050539 C52.83164725 103.63756193 52.83164725 103.63756193 52.83198325 104.69092871 C52.83231067 105.72590745 52.83231067 105.72590745 52.8326447 106.78179485 C52.83308817 108.17996935 52.83353473 109.57814386 52.83398438 110.97631836 C52.8342058 111.66986123 52.83442723 112.36340411 52.83465537 113.07796343 C52.83860338 124.31580553 52.85605754 135.55358277 52.8793439 146.79139981 C52.90305839 158.32895575 52.91526181 169.86646991 52.91668582 181.40405148 C52.91773523 187.88204414 52.92367201 194.35994536 52.94150543 200.83791542 C52.9579517 206.93064161 52.96015832 213.02320728 52.95136642 219.11594772 C52.95059422 221.35327648 52.95496282 223.59061375 52.96482468 225.82792091 C52.97749096 228.8802495 52.9716961 231.93200496 52.96124268 234.98432922 C52.97332728 236.31493054 52.97332728 236.31493054 52.98565602 237.67241269 C52.94524012 242.71211453 52.37989445 246.16028734 49.59375 250.53125 C43.30884041 256.64629717 36.56696069 256.84002441 28.26171875 256.83203125 C27.27053543 256.83631638 26.27935211 256.8406015 25.25813293 256.84501648 C23.16615561 256.85074488 21.07415838 256.85127105 18.98217773 256.84692383 C15.80222075 256.84377079 12.62320105 256.86721818 9.44335938 256.89257812 C7.403647 256.89485214 5.36393214 256.89555414 3.32421875 256.89453125 C2.3832988 256.903741 1.44237885 256.91295074 0.47294617 256.92243958 C-6.58920675 256.87361257 -13.65667604 256.28082396 -18.84375 251.09375 C-21.07606248 247.43275754 -22.65475059 244.78798236 -22.66351891 240.4381752 C-22.67319224 239.22140764 -22.67319224 239.22140764 -22.683061 237.98005891 C-22.6799638 237.09446723 -22.6768666 236.20887555 -22.67367554 235.29644775 C-22.67820665 234.35129043 -22.68273776 233.40613311 -22.68740618 232.43233466 C-22.70009193 229.25724928 -22.6984271 226.08233452 -22.69677734 222.90722656 C-22.70276004 220.63392922 -22.70956499 218.36063392 -22.71713257 216.08734131 C-22.73482756 209.90540916 -22.73948947 203.72353236 -22.74076414 197.54157734 C-22.74266173 192.38258329 -22.75001778 187.22360218 -22.75710833 182.0646131 C-22.77247254 170.5879251 -22.77844506 159.11127318 -22.77709763 147.63457754 C-22.77701772 146.94595797 -22.7769378 146.2573384 -22.77685547 145.54785156 C-22.77677371 144.85838942 -22.77669195 144.16892729 -22.77660771 143.45857236 C-22.77579517 132.29001546 -22.79492425 121.12159354 -22.8231322 109.95307568 C-22.85187773 98.48100748 -22.86530548 87.0090324 -22.86394465 75.53692222 C-22.86343459 69.09798123 -22.86914184 62.65919292 -22.89030075 56.22028351 C-22.90966199 50.16278391 -22.90982179 44.10558293 -22.89526749 38.04807281 C-22.89317558 35.82609623 -22.89790293 33.60410107 -22.9099884 31.38215637 C-22.92543258 28.34574895 -22.91613754 25.31037217 -22.90072632 22.27398682 C-22.91101344 21.39731802 -22.92130057 20.52064923 -22.93189943 19.61741471 C-22.85243615 12.51905964 -21.01307769 7.12984777 -15.93164062 2.06445312 C-10.65198515 -0.23168513 -5.69878906 -0.04001036 0 0 Z " fill="#62A2FB" transform="translate(467.40625,322.46875)"/>
<path d="M0 0 C1.14988403 -0.0038269 2.29976807 -0.00765381 3.48449707 -0.01159668 C5.90845621 -0.0143109 8.33244487 -0.00698427 10.75634766 0.00976562 C14.45672191 0.03118039 18.15515456 0.00994528 21.85546875 -0.015625 C24.2161501 -0.01298164 26.57683024 -0.00785649 28.9375 0 C30.03872192 -0.00809692 31.13994385 -0.01619385 32.27453613 -0.02453613 C38.69690703 0.05347846 42.88539625 0.4546321 47.96875 4.53125 C51.96042457 10.1730219 52.54411855 14.36721806 52.46995544 21.17823792 C52.47825704 22.60806083 52.47825704 22.60806083 52.48672634 24.06676906 C52.50030692 27.25124191 52.48537738 30.4349275 52.47045898 33.61938477 C52.47424306 35.90622286 52.47974383 38.19305867 52.48683167 40.47988892 C52.500791 46.68432236 52.48961323 52.88847865 52.47312045 59.0928967 C52.45926936 65.58569128 52.46573004 72.07846978 52.46925354 78.5712738 C52.47195541 89.47358767 52.45856904 100.37578892 52.43530273 111.27807617 C52.41137765 122.49035732 52.40430118 133.70249283 52.41479492 144.91479492 C52.4274263 158.43528335 52.4249098 171.9556599 52.40913582 185.47614861 C52.40337567 190.63750723 52.40345894 195.79881712 52.40820122 200.96017647 C52.41297115 207.03657142 52.40286837 213.11276467 52.38124657 219.18912125 C52.37567904 221.41999188 52.37521307 223.65088191 52.38019943 225.88175392 C52.38614916 228.92514218 52.37365266 231.9679131 52.35643005 235.01124573 C52.3624401 235.89558479 52.36845014 236.77992386 52.37464231 237.69106108 C52.31569884 243.41267241 51.47761365 247.78064688 47.46875 252.17578125 C43.20350167 255.49689909 40.38309348 256.65099762 35.04174805 256.69238281 C34.04028244 256.70199036 33.03881683 256.7115979 32.00700378 256.72149658 C30.92574722 256.72574646 29.84449066 256.72999634 28.73046875 256.734375 C27.61694534 256.74007507 26.50342194 256.74577515 25.3561554 256.75164795 C22.99827017 256.76109909 20.64037173 256.76763238 18.2824707 256.77148438 C14.68091692 256.78118357 11.0799353 256.812204 7.47851562 256.84375 C5.18750339 256.85028078 2.89648707 256.85553096 0.60546875 256.859375 C-1.00730705 256.8778952 -1.00730705 256.8778952 -2.65266418 256.89678955 C-8.98639596 256.87798676 -13.78150694 256.49538619 -18.67578125 252.03125 C-23.02030054 246.4516667 -23.17984478 242.27827055 -23.17842102 235.41670227 C-23.18209771 234.47239937 -23.1857744 233.52809648 -23.1895625 232.55517834 C-23.20061426 229.37703077 -23.20444572 226.19891588 -23.20825195 223.02075195 C-23.21451548 220.74760331 -23.22116217 218.47445569 -23.22816467 216.2013092 C-23.24558466 210.01520014 -23.25612917 203.8290988 -23.2643702 197.64297128 C-23.26951826 193.77927977 -23.27559408 189.91559067 -23.28188133 186.05190086 C-23.29875211 175.35201032 -23.31338686 164.65212318 -23.32063007 153.95222187 C-23.32253993 151.17591157 -23.32446027 148.39960128 -23.32641602 145.62329102 C-23.32689976 144.93326338 -23.3273835 144.24323574 -23.3278819 143.53229817 C-23.33618013 132.35721788 -23.36151367 121.18224471 -23.39399669 110.00721119 C-23.4270838 98.53066254 -23.44474768 87.05419378 -23.44827431 75.57759255 C-23.45062649 69.13527314 -23.45960899 62.69312303 -23.48473549 56.25084877 C-23.50799486 50.18927192 -23.51225783 44.12797608 -23.50197411 38.0663662 C-23.50147812 35.84277284 -23.50781693 33.61916575 -23.52153015 31.39561462 C-23.53922013 28.35697811 -23.5321566 25.31935321 -23.51899719 22.28071594 C-23.52996644 21.40336503 -23.54093568 20.52601411 -23.55223733 19.62207681 C-23.49195594 13.84587906 -22.37500471 9.32078648 -19.03125 4.53125 C-13.15248122 -0.30580861 -7.38955175 -0.05433295 0 0 Z " fill="#63A2FB" transform="translate(211.03125,366.46875)"/>
<path d="M0 0 C11.72013517 11.45968772 16.47700675 25.47343221 16.91796875 41.609375 C16.8125 44.75 16.8125 44.75 15.8125 45.75 C13.16511911 45.84511266 10.54390999 45.87555635 7.89624023 45.86352539 C7.06704071 45.86367142 6.23784119 45.86381744 5.3835144 45.8639679 C2.62934802 45.86326851 -0.12475161 45.85547493 -2.87890625 45.84765625 C-4.78319766 45.84579216 -6.68748955 45.84436822 -8.59178162 45.84336853 C-13.61417963 45.83954263 -18.63654892 45.82971173 -23.65893555 45.81866455 C-28.7797812 45.80845198 -33.90063148 45.80387124 -39.02148438 45.79882812 C-49.07683557 45.78808953 -59.1321654 45.77101224 -69.1875 45.75 C-68.43617131 48.31205913 -67.67286383 50.86949214 -66.90234375 53.42578125 C-66.69266968 54.14544067 -66.48299561 54.8651001 -66.26696777 55.60656738 C-64.41092128 61.70799348 -61.70728673 66.19987913 -57.1875 70.75 C-56.70410156 71.24757813 -56.22070312 71.74515625 -55.72265625 72.2578125 C-48.88592497 78.58320931 -39.99354489 81.09443531 -30.90234375 80.9609375 C-21.43019261 80.2249718 -13.12632015 76.0928017 -6.75 69.0625 C-5.55630746 67.29583504 -4.37019665 65.52404498 -3.1875 63.75 C6.40703303 64.34453303 6.40703303 64.34453303 9.8125 67.75 C5.51426399 78.22695028 -2.9411772 85.32597248 -13.1875 89.75 C-27.900303 94.5717274 -41.86203211 94.90063874 -56.16796875 88.39453125 C-58.63244123 86.96934019 -60.90819785 85.45434305 -63.1875 83.75 C-63.89261719 83.22535156 -64.59773437 82.70070313 -65.32421875 82.16015625 C-75.87682334 73.61757158 -82.72960162 61.23106029 -84.1875 47.75 C-85.19161182 30.75056303 -82.16352385 16.70642218 -70.9375 3.4375 C-50.89576396 -17.74564145 -22.38191023 -15.79899546 0 0 Z M-60.203125 10.89453125 C-66.26203022 18.36633244 -68.1007216 23.96899441 -69.1875 33.75 C-45.7575 33.75 -22.3275 33.75 1.8125 33.75 C0.70625616 22.68756163 -1.90137108 15.3397919 -10.125 7.75 C-25.22208971 -4.24574958 -46.79251695 -3.37373197 -60.203125 10.89453125 Z " fill="#000000" transform="translate(713.1875,471.25)"/>
<path d="M0 0 C8.68337255 7.37240884 12.2039065 17.02363642 14 28 C14.2825803 32.13486054 14.30058063 36.25888394 14.30859375 40.40234375 C14.33372109 42.77929967 14.35911952 45.15625274 14.38476562 47.53320312 C14.41365725 51.25528409 14.43769896 54.97731601 14.45629883 58.69946289 C14.47783061 62.30899357 14.51721975 65.91799425 14.55859375 69.52734375 C14.55876747 71.20847511 14.55876747 71.20847511 14.5589447 72.92356873 C14.57895287 74.47141808 14.57895287 74.47141808 14.59936523 76.05053711 C14.60443588 76.96048935 14.60950653 77.87044159 14.61473083 78.80796814 C14.74186966 79.53133865 14.86900848 80.25470917 15 81 C16.485 81.99 16.485 81.99 18 83 C18.29296875 85.8203125 18.29296875 85.8203125 18.1875 89.125 C18.14689453 90.76855469 18.14689453 90.76855469 18.10546875 92.4453125 C18.07066406 93.28835938 18.03585937 94.13140625 18 95 C11.84095191 96.18858823 8.48158252 96.17931786 3 93 C0.30472337 89.69216051 0.41151834 85.11518338 0 81 C-0.51046875 81.50789062 -1.0209375 82.01578125 -1.546875 82.5390625 C-11.71699289 92.16821667 -23.81312482 97.64391909 -37.9453125 98.09375 C-49.96087744 97.40910242 -58.96736784 92.92997125 -67 84 C-72.26737888 77.40064026 -73.36118394 70.32786963 -73 62 C-71.4375449 53.47636282 -67.16158942 47.34307238 -60.13671875 42.3828125 C-50.30400166 36.01940875 -40.90985583 34.62756773 -29.3125 34.6875 C-28.26046387 34.68951416 -27.20842773 34.69152832 -26.12451172 34.69360352 C-17.70550722 34.80170545 -8.67779506 35.16110247 -1 39 C-1.95856091 22.80807795 -1.95856091 22.80807795 -10.375 9.5625 C-17.63755439 4.00426598 -26.77346224 3.4152436 -35.625 4.4375 C-42.54435371 5.71353666 -48.39494439 8.92395302 -54.53125 12.22265625 C-57.21873274 13.59968851 -59.13349696 14.37481663 -62 15 C-62.69965443 13.73581754 -63.38434763 12.46334598 -64.0625 11.1875 C-64.44535156 10.47980469 -64.82820312 9.77210938 -65.22265625 9.04296875 C-66 7 -66 7 -65 4 C-62.49435309 2.53615917 -60.04823647 1.24566081 -57.4375 0 C-56.40012695 -0.51433594 -56.40012695 -0.51433594 -55.34179688 -1.0390625 C-36.86155685 -10.06389547 -17.84056048 -11.1983088 0 0 Z M-54 52 C-58.15494594 57.32685377 -59.44933574 61.25996385 -59 68 C-56.80839391 74.57481828 -53.45413074 79.73086543 -47.4375 83.3125 C-40.01850507 86.95455206 -31.90096651 86.98984435 -23.99609375 84.68359375 C-14.97433543 81.59395049 -7.36241489 77.15337937 -2 69 C-0.54438882 65.24036427 -0.88868147 61.22307767 -0.9375 57.25 C-0.94201172 56.55261719 -0.94652344 55.85523438 -0.95117188 55.13671875 C-0.9628998 53.42444197 -0.98083347 51.71220967 -1 50 C-16.86269799 41.93156596 -39.53412778 39.82000853 -54 52 Z " fill="#000000" transform="translate(813,467)"/>
<path d="M0 0 C1.38711719 1.14404759 2.72433729 2.34827941 4.046875 3.56640625 C3.69634865 6.72114344 3.18168424 8.38975965 1.234375 10.94140625 C-0.953125 12.56640625 -0.953125 12.56640625 -2.7890625 12.3515625 C-5.37255686 11.41422971 -7.45559618 10.11678308 -9.765625 8.62890625 C-19.92402361 2.43909485 -30.75319098 1.62052677 -42.28515625 3.91796875 C-46.4159789 4.92194614 -49.55831505 5.70665965 -52.1953125 9.22265625 C-55.03784921 14.16278902 -55.95584475 18.93823733 -54.953125 24.56640625 C-53.03309609 28.68075392 -50.4551635 29.96962327 -46.390625 31.56640625 C-39.56536477 33.8323561 -32.57841431 35.54860519 -25.62109375 37.35546875 C-24.82622559 37.56204102 -24.03135742 37.76861328 -23.21240234 37.98144531 C-21.20645327 38.50081574 -19.1990319 39.01449234 -17.19140625 39.52734375 C-8.46758516 41.94317113 -2.22662843 45.82709075 4.546875 51.75390625 C8.20239463 58.60800556 8.84011506 66.71027 6.921875 74.19140625 C3.81588259 82.62195709 -1.843698 88.72090401 -9.953125 92.56640625 C-26.97664889 98.15586304 -44.68523455 97.73348619 -61.03466797 89.97680664 C-65.75374739 87.58129246 -69.89933413 84.97697569 -73.953125 81.56640625 C-73.42197394 77.05162227 -71.58692208 74.21973768 -68.953125 70.56640625 C-68.15261719 71.02080078 -68.15261719 71.02080078 -67.3359375 71.484375 C-64.88442366 72.86282136 -62.42148514 74.21835837 -59.953125 75.56640625 C-59.14875 76.00855469 -58.344375 76.45070313 -57.515625 76.90625 C-45.80928007 83.07834532 -33.48747888 85.91437116 -20.453125 82.25390625 C-15.96476668 80.6898916 -12.38059702 79.14154779 -9.140625 75.56640625 C-7.34243988 71.02362279 -7.07588705 66.37394653 -7.953125 61.56640625 C-14.18066431 52.33339841 -26.86504094 50.56018465 -37.078125 48.00390625 C-62.6120335 41.56816674 -62.6120335 41.56816674 -68.890625 31.44140625 C-71.61722159 23.72172966 -70.65447454 15.18758595 -67.2578125 7.87890625 C-62.22875591 -1.0348707 -55.53731119 -5.03502957 -45.953125 -8.43359375 C-30.41504706 -11.85653482 -12.98141771 -9.5283606 0 0 Z " fill="#000000" transform="translate(918.953125,468.43359375)"/>
<path d="M0 0 C1 1 1 1 1.1328125 3.6875 C1.13023437 4.780625 1.12765625 5.87375 1.125 7 C1.12886719 8.6396875 1.12886719 8.6396875 1.1328125 10.3125 C1 13 1 13 0 14 C-2.14102432 14.44071154 -4.2881166 14.85205173 -6.4375 15.25 C-17.53935441 17.61689282 -25.45843806 21.42182386 -32 31 C-35.94335372 37.85835225 -35.47722544 44.95550716 -35.51171875 52.68359375 C-35.52858418 54.10850046 -35.54673692 55.53339247 -35.56611633 56.95826721 C-35.61342067 60.68833824 -35.64335587 64.41834961 -35.66955566 68.14862061 C-35.69946064 71.9631325 -35.74595654 75.77743922 -35.79101562 79.59179688 C-35.87682572 87.06109567 -35.94426928 94.53040974 -36 102 C-38.31243792 102.02685412 -40.6249627 102.04632841 -42.9375 102.0625 C-44.22527344 102.07410156 -45.51304687 102.08570313 -46.83984375 102.09765625 C-50 102 -50 102 -51 101 C-51.10065628 97.93081812 -51.13614443 94.88409724 -51.12939453 91.81445312 C-51.13114685 90.85030991 -51.13289917 89.88616669 -51.13470459 88.89280701 C-51.13912493 85.68893664 -51.13618447 82.48512098 -51.1328125 79.28125 C-51.13348549 77.06547027 -51.13445547 74.84969061 -51.13571167 72.63391113 C-51.13718889 67.98330993 -51.13503331 63.33272789 -51.13037109 58.68212891 C-51.1246738 52.70617396 -51.12795267 46.73026391 -51.13394356 40.75431061 C-51.13754852 36.17685606 -51.13641088 31.59941225 -51.13381577 27.0219574 C-51.13314632 24.81782526 -51.13397554 22.61369217 -51.13629532 20.40956116 C-51.13882078 17.33486328 -51.13498275 14.26023922 -51.12939453 11.18554688 C-51.13141876 10.26499008 -51.13344299 9.34443329 -51.13552856 8.39598083 C-51.11426228 2.11426228 -51.11426228 2.11426228 -50 1 C-47.81360547 0.92741054 -45.62499611 0.91626217 -43.4375 0.9375 C-41.64119141 0.95103516 -41.64119141 0.95103516 -39.80859375 0.96484375 C-38.88175781 0.97644531 -37.95492187 0.98804688 -37 1 C-35.74566542 4.76300374 -35.89304578 8.27210909 -35.9375 12.1875 C-35.94201172 12.93708984 -35.94652344 13.68667969 -35.95117188 14.45898438 C-35.96293646 16.30602383 -35.98087135 18.15302213 -36 20 C-35.12988281 19.00419922 -35.12988281 19.00419922 -34.2421875 17.98828125 C-24.39402459 6.85628192 -15.39481162 -0.50474792 0 0 Z " fill="#000000" transform="translate(624,460)"/>
<path d="M0 0 C4.62 0 9.24 0 14 0 C14 33.33 14 66.66 14 101 C9.38 101 4.76 101 0 101 C-1.6968422 97.6063156 -1.13792561 93.74110367 -1.12939453 90.00805664 C-1.13114685 89.07624069 -1.13289917 88.14442474 -1.13470459 87.18437195 C-1.13911887 84.09294797 -1.13618635 81.00158085 -1.1328125 77.91015625 C-1.13348572 75.76785776 -1.13445589 73.62555934 -1.13571167 71.48326111 C-1.13718811 66.9882637 -1.135036 62.49328613 -1.13037109 57.99829102 C-1.12467728 52.22994689 -1.12795096 46.46164933 -1.13394356 40.69330692 C-1.13755352 36.26761015 -1.13640851 31.84192445 -1.13381577 27.41622734 C-1.13314753 25.28910758 -1.13397133 23.16198683 -1.13629532 21.03486824 C-1.13882857 18.06366429 -1.13497151 15.09253618 -1.12939453 12.12133789 C-1.13141876 11.23759491 -1.13344299 10.35385193 -1.13552856 9.44332886 C-1.12369575 6.04855858 -1.08100275 3.24300826 0 0 Z " fill="#000000" transform="translate(947,461)"/>
<path d="M0 0 C1.98 0 3.96 0 6 0 C9.49096943 6.76616993 12.61612713 13.60929874 15.50390625 20.65234375 C15.90906967 21.63312393 16.31423309 22.61390411 16.73167419 23.62440491 C17.58128008 25.68335787 18.42908247 27.74305588 19.27514648 29.8034668 C20.55840438 32.9275293 21.84807955 36.04888322 23.13867188 39.16992188 C23.96913169 41.18473855 24.7992221 43.19970754 25.62890625 45.21484375 C26.00817764 46.13289291 26.38744904 47.05094208 26.7782135 47.99681091 C29.35153043 54.27428867 31.72556151 60.60835296 34 67 C31.36 67 28.72 67 26 67 C18 51.57142857 18 51.57142857 18 47 C8.1 47 -1.8 47 -12 47 C-12.495 49.475 -12.495 49.475 -13 52 C-13.43369251 53.26951888 -13.90262031 54.527688 -14.41015625 55.76953125 C-14.67763672 56.43017578 -14.94511719 57.09082031 -15.22070312 57.77148438 C-15.49849609 58.44501953 -15.77628906 59.11855469 -16.0625 59.8125 C-16.34416016 60.50537109 -16.62582031 61.19824219 -16.91601562 61.91210938 C-17.60674973 63.60967624 -18.30283728 65.30506312 -19 67 C-21.97 67 -24.94 67 -28 67 C-19.21227488 44.434535 -9.59951413 22.22888471 0 0 Z M3 11 C0.00589323 16.84660038 -2.69879531 22.76047554 -5.25 28.8125 C-5.61351562 29.65748047 -5.97703125 30.50246094 -6.3515625 31.37304688 C-6.69445312 32.18451172 -7.03734375 32.99597656 -7.390625 33.83203125 C-7.70032227 34.56139893 -8.01001953 35.2907666 -8.32910156 36.04223633 C-9.16208978 38.12807657 -9.16208978 38.12807657 -9 41 C-0.75 41 7.5 41 16 41 C14.95199219 38.37998047 14.95199219 38.37998047 13.8828125 35.70703125 C10.58854167 27.47135417 7.29427083 19.23567708 4 11 C3.67 11 3.34 11 3 11 Z " fill="#000000" transform="translate(588,603)"/>
<path d="M0 0 C4.54115136 3.53200662 6.64029846 7.49123629 8 13 C8.4646414 17.64318979 8.55579494 22.2735736 8.625 26.9375 C8.67573509 29.38419973 8.73020696 31.83082588 8.7890625 34.27734375 C8.80662598 35.35234131 8.82418945 36.42733887 8.84228516 37.53491211 C8.72394194 39.94411395 8.72394194 39.94411395 10 41 C10.04092937 43.33297433 10.04241723 45.66705225 10 48 C6.6875 47.8125 6.6875 47.8125 3 47 C1.0625 44.4375 1.0625 44.4375 0 42 C-0.721875 42.61875 -1.44375 43.2375 -2.1875 43.875 C-8.88309291 48.93389242 -15.86817339 48.76444904 -24 48 C-28.92307846 45.79310276 -31.66071126 42.85852277 -34 38 C-34.82596057 33.69218841 -34.97999667 29.85610677 -32.89453125 25.90625 C-29.30355309 21.36217039 -24.82184989 18.4810557 -19.00024414 17.74829102 C-16.92903828 17.67082806 -14.88404685 17.68775634 -12.8125 17.75 C-11.76545898 17.75773438 -11.76545898 17.75773438 -10.69726562 17.765625 C-7.33821724 17.8167618 -4.21192629 17.97085566 -1 19 C-0.60787466 12.1941866 -0.60787466 12.1941866 -3 6 C-7.43114916 3.78442542 -12.12902958 3.17209579 -17 4 C-21.10608594 5.44772318 -25.05602716 7.15947934 -29 9 C-29.66 7.02 -30.32 5.04 -31 3 C-29.44148245 2.17988688 -27.87798284 1.36923787 -26.3125 0.5625 C-25.44238281 0.11003906 -24.57226562 -0.34242188 -23.67578125 -0.80859375 C-15.85920087 -4.28896896 -7.50959154 -3.99652082 0 0 Z M-24 26 C-24.61875 26.4125 -25.2375 26.825 -25.875 27.25 C-27.77518208 30.20583879 -27.41138348 32.59139406 -27 36 C-25.45945728 39.01410531 -24.16647537 40.48908379 -21.046875 41.85546875 C-15.08867619 43.57417994 -10.4800124 42.7983042 -5 40 C-1.78986953 38.1235883 -1.78986953 38.1235883 0 35 C0.39363579 31.62301928 0.29549756 28.38180544 0 25 C-7.43764482 21.69438008 -17.15809366 21.26329561 -24 26 Z " fill="#000000" transform="translate(714,623)"/>
<path d="M0 0 C4.0851242 2.87815569 6.02759178 6.2647367 7.34936523 11.1550293 C7.87464369 14.80316977 7.87330482 18.40577736 7.84765625 22.08203125 C7.8462413 22.85181808 7.84482635 23.62160492 7.84336853 24.41471863 C7.83779606 26.85985288 7.82524871 29.30489368 7.8125 31.75 C7.80748144 33.41341013 7.80291915 35.0768217 7.79882812 36.74023438 C7.78783566 40.80602528 7.7705901 44.87174683 7.75 48.9375 C5.44 48.9375 3.13 48.9375 0.75 48.9375 C0.73541748 48.04554932 0.72083496 47.15359863 0.70581055 46.23461914 C0.64429339 42.8850861 0.57006019 39.53631291 0.48754883 36.18725586 C0.45455407 34.7453043 0.42644523 33.30323148 0.40356445 31.86108398 C0.27248475 23.81502157 0.13712331 16.39560763 -3.25 8.9375 C-6.99183875 6.44294083 -8.81243036 6.56143478 -13.25 6.9375 C-18.62473866 8.80220525 -22.65268801 11.86229831 -25.25 16.9375 C-26.13629243 22.41752291 -26.13708927 27.83509304 -26.125 33.375 C-26.14314547 34.88480032 -26.16395397 36.39457112 -26.1875 37.90429688 C-26.23910281 41.58219548 -26.25444816 45.2591927 -26.25 48.9375 C-28.89 48.9375 -31.53 48.9375 -34.25 48.9375 C-34.25 32.7675 -34.25 16.5975 -34.25 -0.0625 C-31.94 -0.0625 -29.63 -0.0625 -27.25 -0.0625 C-26.92 2.5775 -26.59 5.2175 -26.25 7.9375 C-25.63125 7.195 -25.0125 6.4525 -24.375 5.6875 C-17.90644265 -0.7444083 -8.5430874 -2.79293242 0 0 Z " fill="#000000" transform="translate(663.25,621.0625)"/>
<path d="M0 0 C2.64 0 5.28 0 8 0 C13.89079501 13.24878483 19.74774349 26.48343152 25 40 C28.74247611 31.136403 32.30983792 22.21067685 35.8125 13.25 C36.31954365 11.95568301 36.82670453 10.66141194 37.33398438 9.3671875 C38.55713605 6.24523846 39.77912025 3.12283805 41 0 C43.31 0 45.62 0 48 0 C47.41584101 4.22030746 46.42585243 7.86876141 44.83862305 11.81835938 C44.39113205 12.9397229 43.94364105 14.06108643 43.48258972 15.21643066 C42.75450859 17.01195374 42.75450859 17.01195374 42.01171875 18.84375 C41.50672812 20.09861944 41.00207984 21.3536267 40.49775696 22.60876465 C39.4417197 25.23283907 38.38124035 27.85506189 37.31762695 30.47607422 C35.96058156 33.82133237 34.61519718 37.17113629 33.27319622 40.52245331 C32.23397868 43.11363355 31.18831167 45.70217387 30.14075661 48.28999329 C29.40149766 50.11967194 28.66781567 51.95160073 27.93424988 53.78356934 C22.17727743 67.91136128 22.17727743 67.91136128 18 70 C16.45976004 70.06950541 14.91665012 70.08452357 13.375 70.0625 C12.55773437 70.05347656 11.74046875 70.04445313 10.8984375 70.03515625 C10.27195312 70.02355469 9.64546875 70.01195312 9 70 C9 67.69 9 65.38 9 63 C9.886875 63.061875 10.77375 63.12375 11.6875 63.1875 C15.78405389 61.71892408 16.09144021 60.63944416 17.9375 56.8125 C20.28161829 51.5722845 20.18085644 48.1668314 18.16999817 42.77409363 C17.06426826 40.10738154 15.91343817 37.46453869 14.74609375 34.82421875 C14.32578384 33.85845413 13.90547394 32.89268951 13.47242737 31.8976593 C12.13378048 28.82479723 10.78603855 25.75603228 9.4375 22.6875 C8.08711521 19.60039231 6.73862029 16.51247331 5.39186096 13.42378235 C4.55413317 11.50406285 3.71396844 9.58540468 2.87120056 7.66789246 C2.30545067 6.37568535 2.30545067 6.37568535 1.72827148 5.05737305 C1.39375473 4.29603561 1.05923798 3.53469818 0.71458435 2.75028992 C0 1 0 1 0 0 Z " fill="#000000" transform="translate(753,621)"/>
<path d="M0 0 C2.5625 1.6875 2.5625 1.6875 4 3 C3.67 4.32 3.34 5.64 3 7 C0.66979234 7.81788746 -0.50732718 8.20993981 -2.82421875 7.22265625 C-3.43910156 6.83980469 -4.05398438 6.45695313 -4.6875 6.0625 C-9.14862163 3.66547942 -13.00550508 3.18185417 -18 4 C-20.41869578 5.1589584 -22.12322096 6.12322096 -24 8 C-24.07148199 9.35243917 -24.08399454 10.70834367 -24.0625 12.0625 C-24.041875 13.361875 -24.02125 14.66125 -24 16 C-23.27296875 16.17015625 -22.5459375 16.3403125 -21.796875 16.515625 C1.06207565 22.02521823 1.06207565 22.02521823 5 28 C6.42453627 32.30082924 6.17105636 35.39627165 4.9375 39.75 C2.19792032 44.34542398 -0.98412695 46.32804232 -6 48 C-16.86800988 48.74488607 -24.75208341 48.16527773 -34 42 C-33.67 40.35 -33.34 38.7 -33 37 C-29.11389009 37 -28.39926802 37.11908949 -25.3125 38.9375 C-19.74854993 41.84357801 -14.19237792 42.77719863 -8.0625 41.1875 C-4.94758283 40.21667631 -4.94758283 40.21667631 -3 38 C-2.41657647 34.54230809 -2.41657647 34.54230809 -3 31 C-7.54711597 27.42980348 -13.18361501 26.40652082 -18.67382812 24.98242188 C-23.48048844 23.66219251 -27.04914626 22.07152926 -31 19 C-32.85746073 15.28507853 -32.4421807 11.05436108 -32 7 C-29.64056642 2.0088905 -27.08843162 0.01417085 -22 -2 C-14.36252804 -4.21533162 -7.20195863 -3.19766963 0 0 Z " fill="#000000" transform="translate(943,623)"/>
<path d="M0 0 C2.69081197 2.41876297 5.00451665 4.97790142 7 8 C7 8.66 7 9.32 7 10 C4.69 10.66 2.38 11.32 0 12 C-0.7425 11.21625 -1.485 10.4325 -2.25 9.625 C-5.79455515 6.24156099 -8.39158798 4.71240519 -13.3125 4.625 C-18.0680917 4.75796885 -21.39041082 5.87667672 -25 9 C-29.36491829 14.26028615 -29.68190388 19.08648797 -29.44140625 25.8359375 C-28.66548326 31.39786333 -26.61358453 34.95458602 -22.203125 38.40625 C-17.77554782 41.02737569 -14.08099674 41.41005375 -9.046875 40.55078125 C-4.66536264 39.37178651 -2.49597916 37.74396873 0 34 C2.64 34.33 5.28 34.66 8 35 C5.59395404 40.74777645 2.36907344 44.34155765 -3.26953125 47.1171875 C-9.73176649 49.20655111 -18.16271297 49.2805919 -24.4375 46.5 C-30.98043715 42.49841827 -35.52872123 36.66385417 -37.56640625 29.28515625 C-38.91977964 22.15251271 -38.28307311 15.53146588 -35 9 C-30.90110961 3.06902982 -26.64254551 -0.65610525 -19.625 -2.6875 C-12.64543159 -3.518401 -6.29111716 -3.42641203 0 0 Z " fill="#000000" transform="translate(896,623)"/>
<path d="M0 0 C2.31 0 4.62 0 7 0 C7 5.28 7 10.56 7 16 C10.63 16 14.26 16 18 16 C18 17.98 18 19.96 18 22 C14.37 22 10.74 22 7 22 C7.33 33.88 7.66 45.76 8 58 C14.33233517 58.20438202 14.33233517 58.20438202 20 57 C20.66 58.98 21.32 60.96 22 63 C16.6636448 65.72494734 12.01361698 67.04731532 6 66 C3.12970131 64.20606332 1.50868362 63.01736724 0 60 C-0.08691001 57.15570643 -0.11553802 54.33620824 -0.09765625 51.4921875 C-0.0962413 50.65156769 -0.09482635 49.81094788 -0.09336853 48.94485474 C-0.08776237 46.25486725 -0.07520886 43.56496241 -0.0625 40.875 C-0.05748579 39.05338662 -0.05292275 37.23177193 -0.04882812 35.41015625 C-0.03779094 30.94007223 -0.0205222 26.47005014 0 22 C-2.31 22 -4.62 22 -7 22 C-7 20.02 -7 18.04 -7 16 C-4.69 16 -2.38 16 0 16 C0 10.72 0 5.44 0 0 Z " fill="#000000" transform="translate(812,605)"/>
<path d="M0 0 C2.31 0 4.62 0 7 0 C7.00808685 0.71996658 7.01617371 1.43993317 7.02450562 2.18171692 C7.10243024 8.96507261 7.18971448 15.74825016 7.28752708 22.53134632 C7.33748374 26.01865977 7.3838136 29.50594303 7.421875 32.9934082 C7.46578584 37.00231077 7.5254346 41.01084452 7.5859375 45.01953125 C7.59748871 46.27272659 7.60903992 47.52592194 7.62094116 48.8170929 C7.64081085 49.97806992 7.66068054 51.13904694 7.68115234 52.33520508 C7.70113785 53.87075798 7.70113785 53.87075798 7.7215271 55.43733215 C7.82660412 58.23993832 7.82660412 58.23993832 10 61 C11.97747122 61.36297936 11.97747122 61.36297936 14.125 61.1875 C15.40375 61.125625 16.6825 61.06375 18 61 C18.33 63.31 18.66 65.62 19 68 C14.65349307 69.21229105 10.48619478 69.59975866 6 69 C3.12970131 67.20606332 1.50868362 66.01736724 0 63 C-0.09144783 60.9983125 -0.11751697 58.99351744 -0.11352539 56.98974609 C-0.11344986 55.72858978 -0.11337433 54.46743347 -0.11329651 53.1680603 C-0.10818949 51.78651897 -0.10297349 50.40497804 -0.09765625 49.0234375 C-0.09579144 47.6138209 -0.09436783 46.20420366 -0.09336853 44.79458618 C-0.08954833 41.08246068 -0.07972228 37.37037422 -0.06866455 33.65826416 C-0.05843975 29.87113981 -0.05386862 26.08400917 -0.04882812 22.296875 C-0.03809958 14.86456552 -0.02102911 7.43228823 0 0 Z " fill="#000000" transform="translate(735,602)"/>
<path d="M0 0 C2.31 0 4.62 0 7 0 C7 16.17 7 32.34 7 49 C4.69 49 2.38 49 0 49 C0 32.83 0 16.66 0 0 Z " fill="#000000" transform="translate(841,621)"/>
<path d="M0 0 C4.62 0 9.24 0 14 0 C14 6.6 14 13.2 14 20 C9.38 20 4.76 20 0 20 C-1.57924842 16.84150315 -1.14316514 13.4634872 -1.125 10 C-1.12886719 9.26265625 -1.13273438 8.5253125 -1.13671875 7.765625 C-1.1266598 2.2533196 -1.1266598 2.2533196 0 0 Z " fill="#000000" transform="translate(947,421)"/>
<path d="M0 0 C2.31 0 4.62 0 7 0 C7 3.3 7 6.6 7 10 C4.69 10 2.38 10 0 10 C0 6.7 0 3.4 0 0 Z " fill="#000000" transform="translate(841,602)"/>
</svg>
